<?xml version="1.0" encoding="UTF-8" standalone="no"?>
<!-- Created with Inkscape (http://www.inkscape.org/) -->

<svg
   version="1.1"
   id="svg1"
   width="514"
   height="514"
   viewBox="0 0 514.00001 514"
   xml:space="preserve"
   xmlns="http://www.w3.org/2000/svg"
   xmlns:svg="http://www.w3.org/2000/svg"><defs
     id="defs1" /><g
     id="layer3"
     style="display:inline;opacity:1"
     transform="translate(0.999999,1.7109366)"><path
       id="path23"
       style="fill:#db9b89;fill-opacity:1"
       d="M 256,-1.4707031 A 45.307281,45.307281 0 0 0 210.69336,43.835938 45.307281,45.307281 0 0 0 256,89.144531 45.307281,45.307281 0 0 0 301.30664,43.835938 45.307281,45.307281 0 0 0 256,-1.4707031 Z M 256,29.125 A 15.103942,15.103942 0 0 1 271.10352,44.228516 15.103942,15.103942 0 0 1 256,59.333984 15.103942,15.103942 0 0 1 240.89648,44.228516 15.103942,15.103942 0 0 1 256,29.125 Z" /><path
       id="path1"
       style="fill:#d29080;fill-opacity:1"
       d="M 256,59.828125 C 125.72557,59.828125 59.951172,207.72577 59.951172,316 59.951172,424.27423 147.72577,512.04883 256,512.04883 364.27423,512.04883 452.04883,424.27423 452.04883,316 452.04883,207.72577 386.27443,59.828125 256,59.828125 Z" /><path
       id="rect2"
       style="fill:#e8ab98;fill-opacity:1"
       d="m 194.25977,181.10352 c -23.75277,0 -42.875,19.12223 -42.875,42.875 v 94.05664 c 0,23.75275 19.12223,42.875 42.875,42.875 H 256 317.74023 c 23.75277,0 42.875,-19.12225 42.875,-42.875 v -94.05664 c 0,-23.75277 -19.12223,-42.875 -42.875,-42.875 H 256 Z" /><path
       id="path4"
       style="fill:#ac5f56;fill-opacity:1"
       d="M 256,421.00781 A 14.865417,14.865417 0 0 0 241.13477,435.87305 14.865417,14.865417 0 0 0 256,450.73828 14.865417,14.865417 0 0 0 270.86523,435.87305 14.865417,14.865417 0 0 0 256,421.00781 Z" /><circle
       style="display:inline;opacity:1;fill:#ba7165;fill-opacity:1"
       id="path4-9"
       cx="196.44254"
       cy="406.14285"
       r="14.865417" /><path
       id="path22"
       style="fill:#e8ab98;fill-opacity:1;stroke-width:0.985923"
       d="m 66.134766,256 c -2.009827,10.09604 -3.551165,20.1401 -4.574219,30.01562 H 155.34766 V 256 Z" /><path
       id="path25"
       style="fill:#e3a592;fill-opacity:1;stroke-width:0.985923"
       d="m -450.43945,286.01562 c 1.02305,-9.87552 2.56439,-19.91958 4.57422,-30.01562 h 89.21289 v 30.01562 z"
       transform="scale(-1,1)" /><circle
       style="display:inline;opacity:1;fill:#9e4d46;fill-opacity:1"
       id="circle19"
       cx="-315.55746"
       cy="406.14285"
       r="14.865417"
       transform="scale(-1,1)" /><path
       id="path127"
       style="display:inline;fill:#d29080;fill-opacity:1"
       d="M 256,-1.4707031 V 29.125 A 15.103942,15.103942 0 0 1 271.10352,44.228516 15.103942,15.103942 0 0 1 256,59.333984 V 89.144531 A 45.307281,45.307281 0 0 0 301.30664,43.835938 45.307281,45.307281 0 0 0 256,-1.4707031 Z" /><path
       id="path129"
       d="m 256,59.828125 c 130.27456,0 196.04882,147.897535 196.04882,256.171875 0,108.27434 -87.77448,196.04883 -196.04882,196.04883 z"
       style="display:inline;fill:#c47e71;fill-opacity:1" /><path
       id="path130"
       style="display:inline;fill:#e3a592;fill-opacity:1"
       d="m 256,181.10352 h 61.74023 c 23.75279,0 42.875,19.12221 42.875,42.875 v 94.05664 c 0,23.75278 -19.12221,42.875 -42.875,42.875 H 256 Z" /><path
       id="path131"
       style="display:inline;fill:#e3a592;fill-opacity:1;stroke-width:0.985923"
       d="m -450.43945,286.01562 c 1.02305,-9.87552 2.56439,-19.91958 4.57422,-30.01562 h 89.21289 v 30.01562 z"
       transform="scale(-1,1)" /><path
       id="rect4"
       style="fill:#a4554d;fill-opacity:1"
       d="m 196.03711,210.41406 c -8.01118,0 -14.46094,6.44976 -14.46094,14.46094 v 92.26562 c 0,8.01121 6.44976,14.46094 14.46094,14.46094 H 256 315.96289 c 0.5007,0 0.99512,-0.025 1.48242,-0.0742 0.47182,-0.0476 0.93552,-0.11939 1.39258,-0.21093 0.15038,-0.0301 0.29474,-0.0747 0.44336,-0.10938 0.30936,-0.0722 0.61868,-0.14467 0.91992,-0.23633 0.16242,-0.0494 0.31862,-0.11111 0.47852,-0.16601 0.26807,-0.092 0.53627,-0.18398 0.79687,-0.29102 0.19315,-0.0793 0.37957,-0.17048 0.56836,-0.25781 0.22193,-0.10266 0.44455,-0.20302 0.66016,-0.31641 0.1797,-0.0945 0.35226,-0.19904 0.52734,-0.30078 0.2222,-0.12911 0.44379,-0.25802 0.65821,-0.39844 0.16425,-0.10756 0.32294,-0.22194 0.48242,-0.33593 0.20353,-0.14548 0.40419,-0.29361 0.59961,-0.44922 0.15789,-0.12571 0.31051,-0.25657 0.46289,-0.38867 0.18827,-0.16324 0.37322,-0.32931 0.55273,-0.50196 0.14526,-0.13969 0.28649,-0.28209 0.42578,-0.42773 0.17123,-0.17901 0.33812,-0.36117 0.5,-0.54883 0.13087,-0.15171 0.25826,-0.30574 0.38282,-0.46289 0.15466,-0.19513 0.30268,-0.39449 0.44726,-0.59766 0.11899,-0.16718 0.23572,-0.33541 0.34766,-0.50781 0.13253,-0.20414 0.25658,-0.41386 0.3789,-0.625 0.10309,-0.17792 0.20713,-0.35444 0.30274,-0.53711 0.11907,-0.22745 0.22686,-0.46086 0.33398,-0.69531 0.0817,-0.1789 0.16565,-0.35629 0.24024,-0.53906 0.0989,-0.24243 0.18356,-0.49136 0.26953,-0.74024 0.0647,-0.18728 0.13425,-0.37177 0.1914,-0.5625 0.0774,-0.25822 0.138,-0.52295 0.20118,-0.78711 0.0445,-0.18591 0.0975,-0.36796 0.13476,-0.55664 0.056,-0.28355 0.0916,-0.57393 0.13086,-0.86328 0.0248,-0.18262 0.0582,-0.36211 0.0762,-0.54687 0.0456,-0.4693 0.0723,-0.94414 0.0723,-1.42579 V 224.875 c 0,-8.0112 -6.44974,-14.46094 -14.46094,-14.46094 H 256 Z" /><path
       id="path132"
       style="display:inline;fill:#9b4a43;fill-opacity:1"
       d="m 256,210.41406 h 59.96289 c 8.01121,0 14.46094,6.44973 14.46094,14.46094 v 92.26562 c 0,8.01121 -6.44973,14.46094 -14.46094,14.46094 H 256 Z" /><path
       id="path133"
       style="display:inline;fill:#ac5f56;fill-opacity:1"
       d="M 256,421.00781 A 14.865417,14.865417 0 0 1 270.86523,435.87305 14.865417,14.865417 0 0 1 256,450.73828 Z" /><circle
       style="display:inline;opacity:1;fill:#9e4d46;fill-opacity:1"
       id="circle133"
       cx="-315.55746"
       cy="406.14285"
       r="14.865417"
       transform="scale(-1,1)" /><path
       id="rect136"
       style="fill:#ffffff;fill-opacity:0.1"
       d="m 288.91734,43.603704 -3.7e-4,34.766056 18.66099,24.33459 -1.3e-4,-73.410454 z"
       transform="rotate(37.48281)" /><path
       id="rect136-2"
       style="display:inline;fill:#ffffff;fill-opacity:0.1"
       d="m 317.2413,21.88346 0.002,93.42447 18.6598,24.33303 5.3e-4,-132.0684957 -4.71627,3.6166727 z"
       transform="rotate(37.48281)" /><path
       id="rect136-2-3"
       style="display:inline;fill:#ffffff;fill-opacity:0.1"
       d="m 426.73864,13.489407 6.1e-4,77.14386 18.66049,-14.309807 10e-4,-38.497918 z"
       transform="rotate(37.48281)" /></g></svg>
